<?xml version="1.0" encoding="utf-8"?>
<!-- Generator: Adobe Illustrator 26.0.0, SVG Export Plug-In . SVG Version: 6.00 Build 0)  -->
<svg version="1.1" id="Capa_1" xmlns="http://www.w3.org/2000/svg" xmlns:xlink="http://www.w3.org/1999/xlink" x="0px" y="0px"
	 viewBox="0 0 398.1 512" style="enable-background:new 0 0 398.1 512;" xml:space="preserve">
<style type="text/css">
	.st0{fill:#21130D;}
</style>
<g id="Capa_2_00000124133801712445004260000011216540124324645511_">
	<g id="Capa_1-2">
		<path class="st0" d="M92,512c-7.9-2.3-15.8-5.3-20.3-12.6c-3.1-5.1-6-11.1-6.6-16.9c-3.1-32.2-5.5-64.4-8.1-96.6
			c-2.9-35.2-5.7-70.4-8.6-105.6c-2.6-32.4-5.2-64.7-7.7-97.1c-0.8-9.8,4.9-15.4,15.2-15.4c47.7,0,95.3,0,143,0h141
			c14.2,0,18.8,5.3,17.6,19.3c-2.9,34.9-5.6,69.7-8.4,104.6c-2.9,35.2-5.7,70.4-8.6,105.6c-2.1,25.4-4.8,50.8-6,76.2
			c-0.9,19.3-8.1,32.9-27.4,38.5L92,512z M184,341c0,39.8,0,79.6,0,119.5c-0.1,2,0,4,0.1,6c0.9,7.2,6.6,12.8,13.9,13.5
			c7.3,0.7,14-3.9,16-10.9c0.6-2.6,0.9-5.2,0.9-7.9c0.1-79.8,0.1-159.6,0-239.4c0.1-2.7-0.2-5.3-0.9-7.9c-2.3-8-10.7-12.6-18.7-10.3
			c-0.2,0.1-0.5,0.1-0.7,0.2c-7,2.3-10.6,7.8-10.6,16.2C184,260.4,184,300.7,184,341z M138.9,463.9c-2-31-3.9-61-5.7-90.9
			c-3.1-51-6.2-102.1-9.3-153.1c-0.1-2.3-0.5-4.6-1.2-6.9c-2.6-7-9.8-11.1-17.2-9.8C98,204.4,92.7,211,93,218.5
			c0.7,16.3,1.8,32.6,2.8,48.9c4,65.7,8,131.3,12.1,197c0.6,9.4,7.2,15.9,16,15.6c8.5-0.3,15.2-7.4,15-15.9
			C138.9,464,138.9,463.9,138.9,463.9z M305.2,225.9h-0.1c0.1-1.7,0.2-3.3,0.3-5c0.5-9.9-5.2-17.2-14.1-17.9
			c-9-0.6-15.9,5.5-16.6,15.4c-1.3,19.1-2.4,38.2-3.6,57.3c-3.7,61.8-7.3,123.7-10.9,185.5c-0.6,10.5,5.2,18.1,14.4,18.6
			s15.9-6.2,16.5-16.7c1.7-29.4,3.4-58.8,5.2-88.3C299.3,325.3,302.3,275.6,305.2,225.9L305.2,225.9z"/>
		<path class="st0" d="M249.1,0c10.6,3.4,19.7,9.1,22.3,20.6c1.7,7.7,1.6,15.8,2.3,24.2h-31.4V31.3h-85.6v13.6h-30.2
			c-2.8-20.6,0.4-33.9,15.5-41.8c2.3-1.2,4.8-2,7.2-3L249.1,0z"/>
		<path class="st0" d="M198.9,136.9c-60.8,0-121.6,0.1-182.4-0.1c-4.2-0.1-8.4-1.3-12-3.5c-4-2.5-5.4-7.3-3.9-12
			c3.4-11,6.9-21.9,10.9-32.6c3.1-8.4,10.1-11.9,18.8-12.4c1.5-0.1,3,0,4.5,0h328.9c15.2,0,20.7,4,25.5,18.6
			c2.5,7.4,5,14.8,7.5,22.2c4.2,12.5-1.2,20-14.3,20c-48,0-96,0-144,0L198.9,136.9z"/>
	</g>
</g>
</svg>
