<?xml version="1.0" encoding="utf-8"?>
<!-- Generator: Adobe Illustrator 26.0.0, SVG Export Plug-In . SVG Version: 6.00 Build 0)  -->
<svg version="1.1" id="Capa_1" xmlns="http://www.w3.org/2000/svg" xmlns:xlink="http://www.w3.org/1999/xlink" x="0px" y="0px"
	 viewBox="0 0 400.3 398.4" style="enable-background:new 0 0 400.3 398.4;" xml:space="preserve">
<style type="text/css">
	.st0{fill:#21130D;}
</style>
<g id="Capa_2_00000176018011931467651430000000202555066267303353_">
	<g id="Capa_1-2">
		<path class="st0" d="M400.3,61.9c-1,3.7-1.4,7.8-3.3,11.1c-3.2,5.7-6.5,11.8-11,16.3c-58.2,58.6-116.6,117-175.2,175.2
			c-2.2,2.2-4.9,3.7-7.9,4.6c-26.8,7.6-53.6,15-80.4,22.4c-10.3,2.8-16.6-3.4-13.8-13.6c7.4-26.8,14.8-53.6,22.4-80.4
			c0.9-3,2.4-5.7,4.6-7.9c58.4-58.6,116.9-117.1,175.4-175.5c19-18.9,46.2-18.8,65.2,0c3.3,3.3,6.6,6.6,10,9.9
			c7.1,7.1,11.8,15.5,13.3,25.5c0.1,0.5,0.4,0.9,0.6,1.4L400.3,61.9z M202.8,243.6L347.3,99.1L301.2,53L156.8,197.5L202.8,243.6z
			 M315.6,37l46.6,46.6c4-3.7,8.8-7.2,12.6-11.6c7.4-8.8,7.5-21.7,0.2-30.5c-4.9-5.9-10.4-11.3-16.3-16.2c-7.7-6.3-17-7.4-25.5-2.5
			C326.6,26.6,321.2,32.3,315.6,37z M132.2,268.2l50.9-14.1l-36.8-36.8C141.7,233.8,137,250.7,132.2,268.2z"/>
		<path class="st0" d="M198.5,383c-46,0-92-0.1-138,0C13.6,383.1,9,357.7,2,336.6c-1.8-5.4-2.7-11.1-2.7-16.9
			c-0.2-86-0.2-172-0.1-258C-0.7,33,0,10.8,61.5,11c28.9-0.3,57.8-0.1,86.8-0.1c6.7,0,9.3,4.5,11.2,10C164.6,36,151.2,43,144.6,43
			c-28.5,0-57.1,0-85.6,0c-15.4,0-23.3-3.7-27,10.8c-0.7,3.2-1.1,6.4-1,9.7C31,148.3,31,233.1,31,317.9c0,16.2,8,27.4,22.4,31.3
			c3.2,0.8,6.4,1.2,9.7,1.2c91.8,0.1,183.7,0.1,275.5,0c19.3,0,32-12.8,32-32.2c0-28.3,0-56.5,0-84.8c0-6.1,3.2-10.4,8.2-11.1
			c6.4-1,22.1-1.5,22.1,5.5c0.1,15.6,0,31.3,0,46.9c0,14.5,0.2,28.9-0.2,43.4c-0.7,25.2-10.1,61-59.7,64.7
			c-28.8,0.6-57.6,0.2-86.4,0.3C236,383,217.2,383,198.5,383z"/>
	</g>
</g>
</svg>
