<svg xmlns="http://www.w3.org/2000/svg" viewBox="0 0 321.42 311.51"><defs><style>.cls-1{fill:#21130d;}</style></defs><g id="Capa_2" data-name="Capa 2"><g id="Capa_1-2" data-name="Capa 1"><path class="cls-1" d="M321.42,98.72a26.85,26.85,0,0,1-3.24,6.74c-4.6,6.05-11.6,8.42-18.59,6.26a17.57,17.57,0,0,1-12.17-16.23c-.16-10.86-.05-21.73-.08-32.59,0-1.11.28-2.27-.31-3.41-1.4.22-2,1.41-2.86,2.25q-31.49,31.44-62.93,62.93c-4,4-8.5,6.62-14.42,6.31a16.24,16.24,0,0,1-14.61-9.69c-2.93-6-2.37-12,1.57-17.45a34,34,0,0,1,3.57-3.94q31-31,62-62.06c.79-.78,1.84-1.38,2.17-2.62-1-.89-2.2-.46-3.28-.49-11-.23-21.94.45-32.89-.39-9.65-.74-17.09-8.38-16.91-17.26.18-9,8-16.69,17.69-16.91,10.13-.23,20.27-.08,30.4-.08,14.73,0,29.46.13,44.18,0,10-.12,17.14,3.76,20.68,13.39Z"/><path class="cls-1" d="M321.42,298.13c-3.54,9.64-10.68,13.45-20.68,13.38-24.34-.15-48.68-.05-73-.05-6.56,0-12.16-2.23-16-7.65-7.68-10.75-.42-25.43,13.07-26.56,10.95-.91,21.92-.2,32.89-.4,1.23,0,2.47,0,3.75,0,.16-1.7-1.09-2.18-1.82-2.92q-31.44-31.5-62.94-62.93c-4.57-4.56-7-9.72-5.89-16.32A17,17,0,0,1,217.94,184a41.51,41.51,0,0,1,3.95,3.55q30.93,30.9,61.81,61.85a31.42,31.42,0,0,1,2.59,3.51,4.87,4.87,0,0,0,1-4c0-10.76-.09-21.53.08-32.28.12-7.58,3.78-13.23,10.72-16.31a16.52,16.52,0,0,1,21.2,7.57c.84,1.55,1.4,3.25,2.09,4.88Z"/><path class="cls-1" d="M34.42,59.26c0,11.86,0,23.34,0,34.82a18.55,18.55,0,0,1-3.07,10.68A16.74,16.74,0,0,1,13.1,112,17.49,17.49,0,0,1,.21,95.69C0,87.33.14,79,.14,70.61c0-16.93.4-33.87-.13-50.79C-.41,6.28,10.37-.12,20,0c21.63.28,43.27.09,64.9.09,3.66,0,7.33-.21,11,.09,7.56.62,13.39,4.12,16.21,11.41,4,10.38-3.63,21.79-15.13,22.72-10.95.89-21.93.2-32.9.4-1.23,0-2.47,0-3.76,0-.07,1.69,1.15,2.2,1.89,2.94q31.46,31.51,63,63c5.34,5.32,7.62,11.37,5.21,18.76A17,17,0,0,1,104,127.67a42.61,42.61,0,0,1-4.2-3.75q-31.05-31-62.08-62.07A8.43,8.43,0,0,0,34.42,59.26Z"/><path class="cls-1" d="M34.42,252.3a8.27,8.27,0,0,0,3.31-2.59Q69.11,218.35,100.45,187c4-4,8.48-6.66,14.41-6.38a16.29,16.29,0,0,1,14.68,9.59c3.05,6.14,2.37,12.17-1.65,17.73a33.32,33.32,0,0,1-3.6,3.92q-31,31-62.07,62.08c-.8.8-1.56,1.64-2.36,2.48,1,1.3,2.24.76,3.27.77,11.08.07,22.16-.05,33.23.13a17.39,17.39,0,0,1,16.31,12.87c2.64,10.27-4.93,20.26-16.11,21.24-.63.06-1.26.08-1.88.08q-37.94,0-75.88,0A18.68,18.68,0,0,1,5,305.81,15.91,15.91,0,0,1,.15,294.27c0-25.82,0-51.63,0-77.44C.21,207,8,199,17.11,198.94c9.39,0,17.18,8,17.28,17.91.1,10.56,0,21.11,0,31.67Z"/></g></g></svg>