<svg xmlns="http://www.w3.org/2000/svg" viewBox="0 0 167.27 159.09"><defs><style>.cls-1{fill:#fff;}.cls-2{fill:#21130d;}</style></defs><g id="Capa_2" data-name="Capa 2"><g id="Capa_1-2" data-name="Capa 1"><path class="cls-1" d="M.29,60.66,0,61.18c.57.46,1.19.88,1.71,1.38q19.38,18.87,38.78,37.72a3.18,3.18,0,0,1,.95,3.3c-.7,3.66-1.33,7.34-2,11Q36.65,131,33.84,147.51c-.65,3.77-1.28,7.55-2,11.55.62-.28,1-.44,1.4-.65q24.56-12.87,49.11-25.72a2.83,2.83,0,0,1,2.26-.1q21,11,42,22c2.78,1.47,5.58,2.9,8.55,4.45-.05-.7,0-1.15-.12-1.58q-4.68-27.15-9.4-54.29a2.82,2.82,0,0,1,.92-2.82q18.83-18.24,37.56-36.55c1-1,1.92-2,3.07-3.11-1.28-.21-2.21-.39-3.15-.53q-26.6-3.85-53.2-7.68a2.33,2.33,0,0,1-2-1.45Q96.63,26.14,84.28,1.23C84.1.86,83.86.51,83.55,0L77.29,12.65q-9.53,19.29-19.1,38.58a2.45,2.45,0,0,1-1.57,1.19q-19.53,2.92-39.09,5.74Z"/><path class="cls-2" d="M.29,60.66l17.24-2.5q19.54-2.85,39.09-5.74a2.45,2.45,0,0,0,1.57-1.19Q67.79,32,77.29,12.65L83.55,0c.31.51.55.86.73,1.23Q96.61,26.15,108.9,51.08a2.33,2.33,0,0,0,2,1.45q26.61,3.81,53.2,7.68c.94.14,1.87.32,3.15.53-1.15,1.16-2.09,2.16-3.07,3.11q-18.76,18.29-37.56,36.55a2.82,2.82,0,0,0-.92,2.82q4.72,27.14,9.4,54.29c.08.43.07.88.12,1.58-3-1.55-5.77-3-8.55-4.45q-21-11-42-22a2.83,2.83,0,0,0-2.26.1Q57.82,145.5,33.29,158.41c-.38.21-.78.37-1.4.65.67-4,1.3-7.78,2-11.55q2.8-16.47,5.64-32.92c.63-3.67,1.26-7.35,2-11a3.18,3.18,0,0,0-.95-3.3Q21.05,81.47,1.71,62.56c-.52-.5-1.14-.92-1.71-1.38Z"/></g></g></svg>