<svg xmlns="http://www.w3.org/2000/svg" viewBox="0 0 227.98 202.93"><defs><style>.cls-1{fill:#fff;}.cls-2{fill:#21130d;}</style></defs><g id="Capa_2" data-name="Capa 2"><g id="Capa_1-2" data-name="Capa 1"><path class="cls-1" d="M71.88,192.92l1.27.71c5,2.73,9.91,5.47,14.88,8.18,1.81,1,1.12.84,3.24.84h90c.87,0,1.74.05,2.61.12a25.45,25.45,0,0,0,4.86.05,15.54,15.54,0,0,0,9.68-4.55,20.65,20.65,0,0,0,4.32-6.62A36.07,36.07,0,0,0,205.39,181c.14-1.41.17-2.84.24-4.26a3.82,3.82,0,0,1,2.17-3.43c.32-.16.65-.29,1-.45a13.49,13.49,0,0,0,6.85-7.54,19.33,19.33,0,0,0,1.15-5.56,29.65,29.65,0,0,0-.6-8c-.32-1.47-.73-2.91-1.1-4.37a3.79,3.79,0,0,1,1.76-4.28c.38-.22.78-.4,1.16-.6a20.54,20.54,0,0,0,5.17-3.75,12.39,12.39,0,0,0,3.51-6.74,14.58,14.58,0,0,0-.26-5.77,24.51,24.51,0,0,0-4.11-8.62c-.14-.19-.3-.37-.43-.57a3.74,3.74,0,0,1-.18-4.24c.16-.28.35-.53.51-.8a43.05,43.05,0,0,0,4.45-8.9A21.22,21.22,0,0,0,228,95.64a13.86,13.86,0,0,0-3.1-8.66,18.36,18.36,0,0,0-3.35-3.18,28.85,28.85,0,0,0-5.89-3.3,54.13,54.13,0,0,0-10.21-3.08,114.8,114.8,0,0,0-18-2.12c-6.22-.31-12.43-.24-18.64,0-2.81.12-5.62.25-8.42.5-4.13.35-8.26.8-12.4,1.23a3.87,3.87,0,0,1-4-2.23,3.93,3.93,0,0,1-.26-2.44c.55-3.11,1.12-6.23,1.64-9.35a154.52,154.52,0,0,0,1.78-15.91,96.18,96.18,0,0,0-.39-17.55,55,55,0,0,0-2.19-10.31,32.89,32.89,0,0,0-4.72-9.53A22.85,22.85,0,0,0,126,.66,29.89,29.89,0,0,0,115.45.3a2.89,2.89,0,0,0-1.52.4L114,1.86c.18,2.77.39,5.53.53,8.29a118.37,118.37,0,0,1-.73,19.56A105.53,105.53,0,0,1,110.9,45,92.36,92.36,0,0,1,96.87,75,84.15,84.15,0,0,1,72.43,98.1c-.23.14-.45.32-.63.45,0,1.4.07,2.75.07,4.09q0,44.36,0,88.71ZM65.49,147.3V101.59c0-.43,0-.87,0-1.3a8.09,8.09,0,0,0-6.09-7.47,10.24,10.24,0,0,0-2.59-.23H8.72c-.27,0-.55,0-.83,0A8,8,0,0,0,.18,99.08,13.25,13.25,0,0,0,0,101.44q0,45.88,0,91.76c0,.4,0,.8,0,1.19a8,8,0,0,0,6.5,7.48,12,12,0,0,0,2.24.18h48c.35,0,.71,0,1.07,0a8,8,0,0,0,7.6-6.91,15,15,0,0,0,.1-2Q65.49,170.21,65.49,147.3Z"/><path class="cls-2" d="M71.88,192.92v-1.57q0-44.35,0-88.71c0-1.34,0-2.69-.07-4.09.18-.13.4-.31.63-.45A84.15,84.15,0,0,0,96.87,75,92.36,92.36,0,0,0,110.9,45a105.53,105.53,0,0,0,2.89-15.26,118.37,118.37,0,0,0,.73-19.56c-.14-2.76-.35-5.52-.53-8.29L113.93.7a2.89,2.89,0,0,1,1.52-.4A29.89,29.89,0,0,1,126,.66a22.85,22.85,0,0,1,13.9,9.07,32.89,32.89,0,0,1,4.72,9.53,55,55,0,0,1,2.19,10.31,96.18,96.18,0,0,1,.39,17.55A154.52,154.52,0,0,1,145.37,63c-.52,3.12-1.09,6.24-1.64,9.35a3.93,3.93,0,0,0,.26,2.44,3.87,3.87,0,0,0,4,2.23c4.14-.43,8.27-.88,12.4-1.23,2.8-.25,5.61-.38,8.42-.5,6.21-.26,12.42-.33,18.64,0a114.8,114.8,0,0,1,18,2.12,54.13,54.13,0,0,1,10.21,3.08,28.85,28.85,0,0,1,5.89,3.3A18.36,18.36,0,0,1,224.87,87a13.86,13.86,0,0,1,3.1,8.66,21.22,21.22,0,0,1-1.32,7.44,43.05,43.05,0,0,1-4.45,8.9c-.16.27-.35.52-.51.8a3.74,3.74,0,0,0,.18,4.24c.13.2.29.38.43.57a24.51,24.51,0,0,1,4.11,8.62,14.58,14.58,0,0,1,.26,5.77,12.39,12.39,0,0,1-3.51,6.74,20.54,20.54,0,0,1-5.17,3.75c-.38.2-.78.38-1.16.6a3.79,3.79,0,0,0-1.76,4.28c.37,1.46.78,2.9,1.1,4.37a29.65,29.65,0,0,1,.6,8,19.33,19.33,0,0,1-1.15,5.56,13.49,13.49,0,0,1-6.85,7.54c-.32.16-.65.29-1,.45a3.82,3.82,0,0,0-2.17,3.43c-.07,1.42-.1,2.85-.24,4.26a36.07,36.07,0,0,1-2.64,10.67,20.65,20.65,0,0,1-4.32,6.62,15.54,15.54,0,0,1-9.68,4.55,25.45,25.45,0,0,1-4.86-.05c-.87-.07-1.74-.12-2.61-.12h-90c-2.12,0-1.43.15-3.24-.84-5-2.71-9.92-5.45-14.88-8.18Z"/><path class="cls-2" d="M65.49,147.3q0,22.9,0,45.82a15,15,0,0,1-.1,2,8,8,0,0,1-7.6,6.91c-.36,0-.72,0-1.07,0h-48a12,12,0,0,1-2.24-.18A8,8,0,0,1,0,194.39c0-.39,0-.79,0-1.19q0-45.87,0-91.76a13.25,13.25,0,0,1,.17-2.36,8,8,0,0,1,7.71-6.49c.28,0,.56,0,.83,0H56.8a10.24,10.24,0,0,1,2.59.23,8.09,8.09,0,0,1,6.09,7.47c0,.43,0,.87,0,1.3Z"/></g></g></svg>