<svg xmlns="http://www.w3.org/2000/svg" viewBox="0 0 121.82 158.48"><defs><style>.cls-1{fill:#21130d;}</style></defs><g id="Capa_2" data-name="Capa 2"><g id="Capa_1-2" data-name="Capa 1"><path class="cls-1" d="M121.75,79.39v73.34a6.3,6.3,0,0,1-.06,2.22c-.5,1.23-1,2.77-2,3.38-.71.43-2.44-.13-3.33-.77Q95.54,142.7,74.83,127.67c-3.87-2.78-7.74-5.56-11.58-8.39a3.59,3.59,0,0,0-4.71.07Q40.8,132.19,23,145c-5.85,4.23-11.68,8.5-17.61,12.62-.91.63-2.66,1.12-3.37.67-1-.63-1.42-2.2-2-3.42a4,4,0,0,1,0-1.55V5.51C.06.9.88.09,5.52.09H116.21c.89,0,2-.27,2.64.12a7,7,0,0,1,2.66,2.53c.45.83.23,2,.23,3.08Q121.76,42.62,121.75,79.39Z"/></g></g></svg>